<?xml version="1.0" encoding="UTF-8" standalone="no"?>
<!-- Created with Inkscape (http://www.inkscape.org/) -->

<svg
   width="100"
   height="100"
   viewBox="0 0 100 100"
   version="1.1"
   id="svg1"
   inkscape:version="1.4.2 (ebf0e940, 2025-05-08)"
   sodipodi:docname="veeamdex.svg"
   xmlns:inkscape="http://www.inkscape.org/namespaces/inkscape"
   xmlns:sodipodi="http://sodipodi.sourceforge.net/DTD/sodipodi-0.dtd"
   xmlns="http://www.w3.org/2000/svg"
   xmlns:svg="http://www.w3.org/2000/svg">
  <sodipodi:namedview
     id="namedview1"
     pagecolor="#ffffff"
     bordercolor="#000000"
     borderopacity="0.25"
     inkscape:showpageshadow="2"
     inkscape:pageopacity="0.0"
     inkscape:pagecheckerboard="0"
     inkscape:deskcolor="#d1d1d1"
     inkscape:document-units="px"
     inkscape:zoom="3.9525416"
     inkscape:cx="91.83964"
     inkscape:cy="50.094349"
     inkscape:window-width="1440"
     inkscape:window-height="810"
     inkscape:window-x="47"
     inkscape:window-y="25"
     inkscape:window-maximized="0"
     inkscape:current-layer="layer1" />
  <defs
     id="defs1">
    <inkscape:path-effect
       effect="fillet_chamfer"
       id="path-effect27"
       is_visible="true"
       lpeversion="1"
       nodesatellites_param="F,0,0,1,0,1,0,1 @ F,0,0,1,0,1,0,1 @ F,0,0,1,0,1,0,1 @ F,0,0,1,0,1,0,1 @ F,0,0,1,0,1,0,1 @ F,0,0,1,0,1,0,1 @ F,0,0,1,0,1,0,1"
       radius="1"
       unit="px"
       method="auto"
       mode="F"
       chamfer_steps="1"
       flexible="false"
       use_knot_distance="true"
       apply_no_radius="true"
       apply_with_radius="true"
       only_selected="false"
       hide_knots="false" />
    <inkscape:path-effect
       effect="fillet_chamfer"
       id="path-effect26"
       is_visible="true"
       lpeversion="1"
       nodesatellites_param="F,0,0,1,0,2,0,1 @ F,0,0,1,0,2,0,1 @ F,0,0,1,0,2,0,1 @ F,0,0,1,0,2,0,1 @ F,0,0,1,0,2,0,1 @ F,0,0,1,0,2,0,1 @ F,0,0,1,0,2,0,1 @ F,0,0,1,0,2,0,1 @ F,0,0,1,0,2,0,1 @ F,0,0,1,0,2,0,1"
       radius="2"
       unit="px"
       method="auto"
       mode="F"
       chamfer_steps="1"
       flexible="false"
       use_knot_distance="true"
       apply_no_radius="true"
       apply_with_radius="true"
       only_selected="false"
       hide_knots="false" />
    <inkscape:path-effect
       effect="fillet_chamfer"
       id="path-effect10"
       is_visible="true"
       lpeversion="1"
       nodesatellites_param="F,0,0,1,0,5,0,1 @ F,0,0,1,0,5,0,1 @ F,0,0,1,0,5,0,1 @ F,0,0,1,0,5,0,1"
       radius="5"
       unit="px"
       method="auto"
       mode="F"
       chamfer_steps="1"
       flexible="false"
       use_knot_distance="true"
       apply_no_radius="true"
       apply_with_radius="true"
       only_selected="false"
       hide_knots="false" />
    <inkscape:path-effect
       effect="fillet_chamfer"
       id="path-effect8"
       is_visible="true"
       lpeversion="1"
       nodesatellites_param="F,0,0,1,0,5,0,1 @ F,0,0,1,0,5,0,1 @ F,0,0,1,0,5,0,1 @ F,0,0,1,0,5,0,1"
       radius="5"
       unit="px"
       method="auto"
       mode="F"
       chamfer_steps="1"
       flexible="false"
       use_knot_distance="true"
       apply_no_radius="true"
       apply_with_radius="true"
       only_selected="false"
       hide_knots="false" />
    <inkscape:path-effect
       effect="fillet_chamfer"
       id="path-effect6"
       is_visible="true"
       lpeversion="1"
       nodesatellites_param="F,0,0,1,0,5,0,1 @ F,0,0,1,0,5,0,1 @ F,0,0,1,0,5,0,1 @ F,0,0,1,0,5,0,1"
       radius="5"
       unit="px"
       method="auto"
       mode="F"
       chamfer_steps="1"
       flexible="false"
       use_knot_distance="true"
       apply_no_radius="true"
       apply_with_radius="true"
       only_selected="false"
       hide_knots="false" />
    <inkscape:path-effect
       effect="fillet_chamfer"
       id="path-effect5"
       is_visible="true"
       lpeversion="1"
       nodesatellites_param="F,0,0,1,0,4,0,1 @ F,0,0,1,0,4,0,1 @ F,0,0,1,0,4,0,1 @ F,0,0,1,0,4,0,1"
       radius="4"
       unit="px"
       method="auto"
       mode="F"
       chamfer_steps="1"
       flexible="false"
       use_knot_distance="true"
       apply_no_radius="true"
       apply_with_radius="true"
       only_selected="false"
       hide_knots="false" />
    <inkscape:path-effect
       effect="fillet_chamfer"
       id="path-effect3"
       is_visible="true"
       lpeversion="1"
       nodesatellites_param="F,0,0,1,0,4,0,1 @ F,0,0,1,0,4,0,1 @ F,0,0,1,0,4,0,1 @ F,0,0,1,0,4,0,1"
       radius="4"
       unit="px"
       method="auto"
       mode="F"
       chamfer_steps="1"
       flexible="false"
       use_knot_distance="true"
       apply_no_radius="true"
       apply_with_radius="true"
       only_selected="false"
       hide_knots="false" />
    <inkscape:path-effect
       effect="fillet_chamfer"
       id="path-effect1"
       is_visible="true"
       lpeversion="1"
       nodesatellites_param="F,0,0,1,0,1.7275912,0,1 @ F,0,0,1,0,1.7275912,0,1 @ F,0,0,1,0,1.7275912,0,1 @ F,0,0,1,0,1.7275912,0,1"
       radius="3"
       unit="px"
       method="auto"
       mode="F"
       chamfer_steps="1"
       flexible="false"
       use_knot_distance="true"
       apply_no_radius="true"
       apply_with_radius="true"
       only_selected="false"
       hide_knots="false" />
  </defs>
  <g
     inkscape:label="Layer 1"
     inkscape:groupmode="layer"
     id="layer1">
    <path
       id="path27"
       style="fill:none;stroke:#000000;stroke-width:3.4;paint-order:stroke fill markers;stroke-opacity:1;fill-opacity:1;stroke-dasharray:none"
       d="M 16 3.5878906 A 5 5 0 0 0 11 8.5878906 L 11 26.587891 A 5 5 0 0 0 16 31.587891 L 27.384766 31.587891 L 23.488281 19.660156 A 0.72530088 0.72530088 0 0 1 24.177734 18.708984 L 30.431641 18.708984 A 1.3659811 1.3659811 0 0 1 31.732422 19.662109 L 35.511719 31.587891 L 64.5625 31.587891 L 68.361328 19.662109 A 1.3681152 1.3681152 0 0 1 69.666016 18.708984 L 75.822266 18.708984 A 0.72578972 0.72578972 0 0 1 76.511719 19.660156 L 72.623047 31.587891 L 84 31.587891 A 5 5 0 0 0 89 26.587891 L 89 8.5878906 A 5 5 0 0 0 84 3.5878906 L 16 3.5878906 z M 16 36.425781 A 5 5 0 0 0 11 41.425781 L 11 59.425781 A 5 5 0 0 0 16 64.425781 L 38.113281 64.425781 L 28.964844 36.425781 L 16 36.425781 z M 37.044922 36.425781 L 45.919922 64.425781 L 54.099609 64.425781 L 63.019531 36.425781 L 37.044922 36.425781 z M 71.046875 36.425781 L 61.917969 64.425781 L 84 64.425781 A 5 5 0 0 0 89 59.425781 L 89 41.425781 A 5 5 0 0 0 84 36.425781 L 71.046875 36.425781 z M 16 69.261719 A 5 5 0 0 0 11 74.261719 L 11 92.261719 A 5 5 0 0 0 16 97.261719 L 84 97.261719 A 5 5 0 0 0 89 92.261719 L 89 74.261719 A 5 5 0 0 0 84 69.261719 L 60.341797 69.261719 L 55.060547 85.460938 A 1.3778095 1.3778095 0 0 1 53.75 86.412109 L 46.296875 86.412109 A 1.3787382 1.3787382 0 0 1 44.986328 85.462891 L 39.693359 69.261719 L 16 69.261719 z M 47.453125 69.261719 L 49.697266 76.341797 A 0.31777212 0.31777212 0 0 0 50.302734 76.34375 L 52.558594 69.261719 L 47.453125 69.261719 z " />
    <path
       id="path32"
       style="fill:none;fill-opacity:1;stroke:#000000;stroke-width:2;stroke-opacity:1;paint-order:stroke fill markers"
       d="M 115.6827,2.5758835 A 5,5 0 0 0 110.6827,7.5758835 V 25.575884 A 5,5 0 0 0 115.6827,30.575884 H 127.06746 L 123.17098,18.648149 A 0.72530088,0.72530088 0 0 1 123.86043,17.696977 H 130.11434 A 1.3659811,1.3659811 0 0 1 131.41512,18.650102 L 135.19441,30.575884 H 164.2452 L 168.04402,18.650102 A 1.3681152,1.3681152 0 0 1 169.34871,17.696977 H 175.50496 A 0.72578972,0.72578972 0 0 1 176.19441,18.648149 L 172.30574,30.575884 H 183.6827 A 5,5 0 0 0 188.6827,25.575884 V 7.5758835 A 5,5 0 0 0 183.6827,2.5758835 Z M 115.6827,35.413774 A 5,5 0 0 0 110.6827,40.413774 V 58.413774 A 5,5 0 0 0 115.6827,63.413774 H 137.79598 L 128.64754,35.413774 Z M 136.72762,35.413774 145.60262,63.413774 H 153.7823 L 162.70223,35.413774 Z M 170.72957,35.413774 161.60066,63.413774 H 183.6827 A 5,5 0 0 0 188.6827,58.413774 V 40.413774 A 5,5 0 0 0 183.6827,35.413774 Z M 115.6827,68.249712 A 5,5 0 0 0 110.6827,73.249712 V 91.249712 A 5,5 0 0 0 115.6827,96.249712 H 183.6827 A 5,5 0 0 0 188.6827,91.249712 V 73.249712 A 5,5 0 0 0 183.6827,68.249712 H 160.02449 L 154.74324,84.448931 A 1.3778095,1.3778095 0 0 1 153.4327,85.400102 H 145.97957 A 1.3787382,1.3787382 0 0 1 144.66902,84.450884 L 139.37605,68.249712 Z M 147.13582,68.249712 149.37996,75.32979 A 0.31777212,0.31777212 0 0 0 149.98543,75.331743 L 152.24129,68.249712 Z" />
  </g>
</svg>
