<?xml version="1.0" encoding="UTF-8" standalone="no"?>
<!-- Created with Inkscape (http://www.inkscape.org/) -->

<svg
   width="100"
   height="100"
   viewBox="0 0 100 100"
   version="1.1"
   id="svg1"
   inkscape:version="1.4.2 (ebf0e940, 2025-05-08)"
   xml:space="preserve"
   sodipodi:docname="veeamdex_ng.svg"
   xmlns:inkscape="http://www.inkscape.org/namespaces/inkscape"
   xmlns:sodipodi="http://sodipodi.sourceforge.net/DTD/sodipodi-0.dtd"
   xmlns="http://www.w3.org/2000/svg"
   xmlns:svg="http://www.w3.org/2000/svg"><sodipodi:namedview
     id="namedview1"
     pagecolor="#ffffff"
     bordercolor="#000000"
     borderopacity="0.25"
     inkscape:showpageshadow="2"
     inkscape:pageopacity="0.0"
     inkscape:pagecheckerboard="0"
     inkscape:deskcolor="#d1d1d1"
     inkscape:document-units="px"
     inkscape:zoom="5.9007092"
     inkscape:cx="35.504207"
     inkscape:cy="59.484375"
     inkscape:window-width="1440"
     inkscape:window-height="810"
     inkscape:window-x="47"
     inkscape:window-y="25"
     inkscape:window-maximized="0"
     inkscape:current-layer="layer1" /><defs
     id="defs1"><inkscape:path-effect
       effect="fillet_chamfer"
       id="path-effect18"
       is_visible="true"
       lpeversion="1"
       nodesatellites_param="F,0,1,1,0,3.9665713,0,1 @ F,0,0,1,0,0,0,1 @ F,0,0,1,0,3.9665713,0,1 @ F,0,0,1,0,0,0,1 @ F,0,0,1,0,0,0,1 @ F,0,0,1,0,0,0,1"
       radius="0"
       unit="px"
       method="auto"
       mode="F"
       chamfer_steps="1"
       flexible="false"
       use_knot_distance="true"
       apply_no_radius="true"
       apply_with_radius="true"
       only_selected="false"
       hide_knots="false" /><inkscape:path-effect
       effect="fillet_chamfer"
       id="path-effect4"
       is_visible="true"
       lpeversion="1"
       nodesatellites_param="F,0,1,1,0,3.9665713,0,1 @ F,0,0,1,0,0,0,1 @ F,0,0,1,0,3.9665713,0,1 @ F,0,0,1,0,0,0,1 @ F,0,0,1,0,0,0,1 @ F,0,0,1,0,0,0,1"
       radius="0"
       unit="px"
       method="auto"
       mode="F"
       chamfer_steps="1"
       flexible="false"
       use_knot_distance="true"
       apply_no_radius="true"
       apply_with_radius="true"
       only_selected="false"
       hide_knots="false" /><inkscape:path-effect
       effect="fillet_chamfer"
       id="path-effect3"
       is_visible="true"
       lpeversion="1"
       nodesatellites_param="F,0,0,1,0,2.8326404,0,1 @ F,0,0,1,0,0.27950253,0,1 @ F,0,0,1,0,3.0120743,0,1 @ F,0,0,1,0,0.5,0,1 @ F,0,0,1,0,2.3699654,0,1"
       radius="0.5"
       unit="px"
       method="auto"
       mode="F"
       chamfer_steps="1"
       flexible="false"
       use_knot_distance="true"
       apply_no_radius="true"
       apply_with_radius="true"
       only_selected="false"
       hide_knots="false" /><inkscape:path-effect
       effect="mirror_symmetry"
       start_point="58.155375,14.534144"
       end_point="58.155375,89.716938"
       center_point="58.155375,52.125541"
       id="path-effect2"
       is_visible="true"
       lpeversion="1.2"
       lpesatellites=""
       mode="free"
       discard_orig_path="false"
       fuse_paths="true"
       oposite_fuse="false"
       split_items="false"
       split_open="false"
       link_styles="false" /></defs><g
     inkscape:label="Layer 1"
     inkscape:groupmode="layer"
     id="layer1"><path
       d="M -124.30393,99.04987 V 199.04987 H -24.30393 V 99.04987 Z M -99.587133,115.30964 A 11.490785,11.490785 0 0 1 -88.096899,126.80182 11.490785,11.490785 0 0 1 -90.583227,133.94049 L -75.259008,161.69635 A 14.742893,14.742893 0 0 1 -72.921118,161.50885 14.742893,14.742893 0 0 1 -69.969946,161.80768 L -62.823461,149.29987 A 18.428616,18.428616 0 0 1 -68.151586,136.34089 18.428616,18.428616 0 0 1 -49.721899,117.9112 18.428616,18.428616 0 0 1 -31.294164,136.34089 18.428616,18.428616 0 0 1 -49.721899,154.76862 18.428616,18.428616 0 0 1 -54.126196,154.23542 L -61.42893,167.01471 A 14.742893,14.742893 0 0 1 -58.176977,176.25104 14.742893,14.742893 0 0 1 -72.921118,190.99518 14.742893,14.742893 0 0 1 -87.663305,176.25104 14.742893,14.742893 0 0 1 -84.009008,166.5362 L -99.604711,138.29206 A 11.490785,11.490785 0 0 1 -111.07932,126.80182 11.490785,11.490785 0 0 1 -99.587133,115.30964 Z"
       style="fill:#157044;stroke-width:3.40001;paint-order:stroke fill markers"
       id="path1-8" /><path
       d="M 84.63982,21.443576 67.056599,51.709137 53.829153,74.481239 52.847695,76.169698 A 5.1599279,5.1278564 0 0 1 43.910791,76.169698 L 42.775147,74.21309 28.97543,50.459736 A 34.379134,14.173374 0 0 0 28.972466,50.459736 L 15.88438,27.929264 V 39.36541 59.992313 L 19.943645,67.034926 A 34.379134,14.173374 0 0 0 19.946609,67.037872 L 35.632148,94.238865 A 34.379134,14.173374 0 0 0 50.262101,95.585506 34.379134,14.173374 0 0 0 60.737905,94.910713 L 74.988322,70.193789 A 34.379134,14.173374 0 0 0 74.991287,70.190843 L 84.63982,53.459477 V 39.374249 39.359515 Z"
       style="fill:#20aa6e;fill-opacity:1;stroke:none;stroke-width:2.55793;paint-order:stroke fill markers"
       id="path23" /><g
       id="g13"
       transform="matrix(2.0509825,0,0,2.0908238,-52.288136,-60.674499)"
       style="fill:none;fill-opacity:1;stroke-width:1.69016;stroke-dasharray:none"><path
         d="M 33.238281,57.902344 V 67.957031 A 16.762274,6.7788463 0 0 0 50,74.736328 16.762274,6.7788463 0 0 0 66.761719,67.957031 V 67.955078 57.90625 A 16.762274,6.7788463 0 0 1 61.191406,62.929687 16.762274,6.7788463 0 0 1 50,64.681641 16.762274,6.7788463 0 0 1 38.806641,62.929687 16.762274,6.7788463 0 0 1 33.238281,57.902344 Z"
         style="fill:none;fill-opacity:1;stroke:#157044;stroke-width:1.69017;stroke-dasharray:none;stroke-opacity:1;paint-order:stroke fill markers"
         id="path9" /><path
         d="M 33.238281,47.847656 V 57.902344 A 16.762274,6.7788463 0 0 0 38.806641,62.929687 16.762274,6.7788463 0 0 0 50,64.681641 16.762274,6.7788463 0 0 0 61.191406,62.929687 16.762274,6.7788463 0 0 0 66.761719,57.902344 16.762274,6.7788463 0 0 0 66.761719,57.898437 V 47.851562 A 16.762274,6.7788463 0 0 1 61.193359,52.875 16.762274,6.7788463 0 0 1 50,54.626953 16.762274,6.7788463 0 0 1 38.808594,52.875 16.762274,6.7788463 0 0 1 33.238281,47.847656 Z"
         style="fill:none;fill-opacity:1;stroke:#157044;stroke-width:1.69017;stroke-dasharray:none;stroke-opacity:1;paint-order:stroke fill markers"
         id="path8" /><path
         d="M 33.238281,37.792969 V 47.847656 A 16.762274,6.7788463 0 0 0 38.808594,52.875 16.762274,6.7788463 0 0 0 50,54.626953 16.762274,6.7788463 0 0 0 61.193359,52.875 16.762274,6.7788463 0 0 0 66.761719,47.851562 V 47.84375 37.794922 A 16.762274,6.7788463 0 0 1 61.191406,42.820312 16.762274,6.7788463 0 0 1 50,44.570312 16.762274,6.7788463 0 0 1 38.806641,42.820312 16.762274,6.7788463 0 0 1 33.238281,37.792969 Z"
         style="fill:none;fill-opacity:1;stroke:#157044;stroke-width:1.69017;stroke-dasharray:none;stroke-opacity:1;paint-order:stroke fill markers"
         id="path7" /><path
         d="M 50,31.013672 A 16.762274,6.7788463 0 0 0 33.238281,37.792969 16.762274,6.7788463 0 0 0 38.806641,42.820312 16.762274,6.7788463 0 0 0 50,44.570312 16.762274,6.7788463 0 0 0 61.191406,42.820312 16.762274,6.7788463 0 0 0 66.761719,37.794922 V 37.792969 A 16.762274,6.7788463 0 0 0 50,31.013672 Z"
         style="fill:none;fill-opacity:1;stroke:#157044;stroke-width:1.69017;stroke-dasharray:none;stroke-opacity:1;paint-order:stroke fill markers"
         id="path6" /></g><circle
       style="fill:none;stroke:#157044;stroke-width:4.8;stroke-dasharray:none;stroke-opacity:1;paint-order:stroke fill markers"
       id="circle13"
       cx="-70.956291"
       cy="-25.954638"
       r="31.93923" /><path
       id="path13"
       style="fill:#20aa6e;fill-opacity:1;stroke:none;stroke-width:10.8641;stroke-opacity:1;paint-order:stroke fill markers"
       d="M 17.045154,17.975505 58.156961,89.717558 99.266881,17.975544 A 2.2987047,2.2987047 59.906879 0 0 97.272419,14.533964 H 89.217508 L 58.156961,68.334745 27.094461,14.533964 H 19.039548 A 2.2986529,2.2986529 120.09256 0 0 17.045154,17.975505 Z"
       transform="matrix(0.92045994,0,0,0.92045994,-125.46606,-69.47759)"
       inkscape:original-d="M 15.072977,14.533964 58.156961,89.717558 101.23899,14.533964 H 89.217508 L 58.156961,68.334745 27.094461,14.533964 Z"
       inkscape:path-effect="#path-effect18" /><g
       id="g17"
       transform="matrix(0.962347,0,0,0.962347,-119.07364,-76.884129)"
       style="fill:none;fill-opacity:1;stroke-width:2.59782;stroke-dasharray:none"><path
         d="M 33.238281,57.902344 V 67.957031 A 16.762274,6.7788463 0 0 0 50,74.736328 16.762274,6.7788463 0 0 0 66.761719,67.957031 V 67.955078 57.90625 A 16.762274,6.7788463 0 0 1 61.191406,62.929687 16.762274,6.7788463 0 0 1 50,64.681641 16.762274,6.7788463 0 0 1 38.806641,62.929687 16.762274,6.7788463 0 0 1 33.238281,57.902344 Z"
         style="fill:none;fill-opacity:1;stroke:#157044;stroke-width:2.59782;stroke-dasharray:none;stroke-opacity:1;paint-order:stroke fill markers"
         id="path14" /><path
         d="M 33.238281,47.847656 V 57.902344 A 16.762274,6.7788463 0 0 0 38.806641,62.929687 16.762274,6.7788463 0 0 0 50,64.681641 16.762274,6.7788463 0 0 0 61.191406,62.929687 16.762274,6.7788463 0 0 0 66.761719,57.902344 16.762274,6.7788463 0 0 0 66.761719,57.898437 V 47.851562 A 16.762274,6.7788463 0 0 1 61.193359,52.875 16.762274,6.7788463 0 0 1 50,54.626953 16.762274,6.7788463 0 0 1 38.808594,52.875 16.762274,6.7788463 0 0 1 33.238281,47.847656 Z"
         style="fill:none;fill-opacity:1;stroke:#157044;stroke-width:2.59782;stroke-dasharray:none;stroke-opacity:1;paint-order:stroke fill markers"
         id="path15" /><path
         d="M 33.238281,37.792969 V 47.847656 A 16.762274,6.7788463 0 0 0 38.808594,52.875 16.762274,6.7788463 0 0 0 50,54.626953 16.762274,6.7788463 0 0 0 61.193359,52.875 16.762274,6.7788463 0 0 0 66.761719,47.851562 V 47.84375 37.794922 A 16.762274,6.7788463 0 0 1 61.191406,42.820312 16.762274,6.7788463 0 0 1 50,44.570312 16.762274,6.7788463 0 0 1 38.806641,42.820312 16.762274,6.7788463 0 0 1 33.238281,37.792969 Z"
         style="fill:none;fill-opacity:1;stroke:#157044;stroke-width:2.59782;stroke-dasharray:none;stroke-opacity:1;paint-order:stroke fill markers"
         id="path16" /><path
         d="M 50,31.013672 A 16.762274,6.7788463 0 0 0 33.238281,37.792969 16.762274,6.7788463 0 0 0 38.806641,42.820312 16.762274,6.7788463 0 0 0 50,44.570312 16.762274,6.7788463 0 0 0 61.191406,42.820312 16.762274,6.7788463 0 0 0 66.761719,37.794922 V 37.792969 A 16.762274,6.7788463 0 0 0 50,31.013672 Z"
         style="fill:none;fill-opacity:1;stroke:#157044;stroke-width:2.59782;stroke-dasharray:none;stroke-opacity:1;paint-order:stroke fill markers"
         id="path17" /></g></g></svg>
