<?xml version="1.0" encoding="UTF-8" standalone="no"?>
<!-- Created with Inkscape (http://www.inkscape.org/) -->

<svg
   width="100"
   height="100"
   viewBox="0 0 100 100"
   version="1.1"
   id="svg1"
   xml:space="preserve"
   xmlns="http://www.w3.org/2000/svg"
   xmlns:svg="http://www.w3.org/2000/svg"><defs
     id="defs1" /><g
     id="layer1"><path
       d="M 84.63982,21.443576 67.056599,51.709137 53.829153,74.481239 52.847695,76.169698 A 5.1599279,5.1278564 0 0 1 43.910791,76.169698 L 42.775147,74.21309 28.97543,50.459736 A 34.379134,14.173374 0 0 0 28.972466,50.459736 L 15.88438,27.929264 V 39.36541 59.992313 L 19.943645,67.034926 A 34.379134,14.173374 0 0 0 19.946609,67.037872 L 35.632148,94.238865 A 34.379134,14.173374 0 0 0 50.262101,95.585506 34.379134,14.173374 0 0 0 60.737905,94.910713 L 74.988322,70.193789 A 34.379134,14.173374 0 0 0 74.991287,70.190843 L 84.63982,53.459477 V 39.374249 39.359515 Z"
       style="fill:#20aa6e;fill-opacity:1;stroke:none;stroke-width:2.55793;paint-order:stroke fill markers"
       id="path23" /><g
       id="g13"
       transform="matrix(2.0509825,0,0,2.0908238,-52.288136,-60.674499)"
       style="fill:none;fill-opacity:1;stroke-width:1.69016;stroke-dasharray:none"><path
         d="M 33.238281,57.902344 V 67.957031 A 16.762274,6.7788463 0 0 0 50,74.736328 16.762274,6.7788463 0 0 0 66.761719,67.957031 V 67.955078 57.90625 A 16.762274,6.7788463 0 0 1 61.191406,62.929687 16.762274,6.7788463 0 0 1 50,64.681641 16.762274,6.7788463 0 0 1 38.806641,62.929687 16.762274,6.7788463 0 0 1 33.238281,57.902344 Z"
         style="fill:none;fill-opacity:1;stroke:#157044;stroke-width:1.69017;stroke-dasharray:none;stroke-opacity:1;paint-order:stroke fill markers"
         id="path9" /><path
         d="M 33.238281,47.847656 V 57.902344 A 16.762274,6.7788463 0 0 0 38.806641,62.929687 16.762274,6.7788463 0 0 0 50,64.681641 16.762274,6.7788463 0 0 0 61.191406,62.929687 16.762274,6.7788463 0 0 0 66.761719,57.902344 16.762274,6.7788463 0 0 0 66.761719,57.898437 V 47.851562 A 16.762274,6.7788463 0 0 1 61.193359,52.875 16.762274,6.7788463 0 0 1 50,54.626953 16.762274,6.7788463 0 0 1 38.808594,52.875 16.762274,6.7788463 0 0 1 33.238281,47.847656 Z"
         style="fill:none;fill-opacity:1;stroke:#157044;stroke-width:1.69017;stroke-dasharray:none;stroke-opacity:1;paint-order:stroke fill markers"
         id="path8" /><path
         d="M 33.238281,37.792969 V 47.847656 A 16.762274,6.7788463 0 0 0 38.808594,52.875 16.762274,6.7788463 0 0 0 50,54.626953 16.762274,6.7788463 0 0 0 61.193359,52.875 16.762274,6.7788463 0 0 0 66.761719,47.851562 V 47.84375 37.794922 A 16.762274,6.7788463 0 0 1 61.191406,42.820312 16.762274,6.7788463 0 0 1 50,44.570312 16.762274,6.7788463 0 0 1 38.806641,42.820312 16.762274,6.7788463 0 0 1 33.238281,37.792969 Z"
         style="fill:none;fill-opacity:1;stroke:#157044;stroke-width:1.69017;stroke-dasharray:none;stroke-opacity:1;paint-order:stroke fill markers"
         id="path7" /><path
         d="M 50,31.013672 A 16.762274,6.7788463 0 0 0 33.238281,37.792969 16.762274,6.7788463 0 0 0 38.806641,42.820312 16.762274,6.7788463 0 0 0 50,44.570312 16.762274,6.7788463 0 0 0 61.191406,42.820312 16.762274,6.7788463 0 0 0 66.761719,37.794922 V 37.792969 A 16.762274,6.7788463 0 0 0 50,31.013672 Z"
         style="fill:none;fill-opacity:1;stroke:#157044;stroke-width:1.69017;stroke-dasharray:none;stroke-opacity:1;paint-order:stroke fill markers"
         id="path6" /></g></g></svg>
